<svg xmlns="http://www.w3.org/2000/svg" viewBox="0 0 1220 607" width="1220" height="607" style="max-width: 100%; max-height: 100%;"><rect x="0" y="0" width="1220" height="607" fill="#FFFFFF"/><g transform="translate(50, 45)"><g transform="translate(392, 256)"><g transform="translate(-392, -256)"><g transform="translate(22, 22)"><path d="M44 8 L90 8 L136 8 C158 8 172 22 172 44 L172 42 L172 40 C172 62 158 76 136 76 L90 76 L44 76 C22 76 8 62 8 40 L8 42 L8 44 C8 22 22 8 44 8 Z" fill="#FFFFFF" stroke="#0080FF" stroke-width="2"/><g transform="translate(16, 12)"><g transform="translate(0, 19)"><g transform="translate(0, 0)"><g transform="translate(4, 0) scale(0.9)"><text x="55.5" y="18.5" fill="#101723" font-size="14" font-family="Roboto,sans-serif" font-weight="400" xml:space="preserve">Début</text></g></g></g></g></g></g><g transform="translate(-168, -256)"><g transform="translate(22, 22)"><path d="M8.5 5 L90 5 L171.5 5 C173.5 5 175 6.5 175 8.5 L175 42 L175 73 C175 75 173 76 171 75 C171 75 161 65 133 65 C104 65 76 79 48 79 C19 79 5 65 5 65 L5 42 L5 8.5 C5 6.5 6.5 5 8.5 5 Z" fill="#FFFFFF" stroke="#0080FF" stroke-width="2"/><g transform="translate(10, 12.5)"><g transform="translate(0, 9)"><g transform="translate(0, 0)"><g transform="translate(4, 0) scale(0.9)"><text x="57" y="18.5" fill="#101723" font-size="14" font-family="Roboto,sans-serif" font-weight="400" xml:space="preserve">Accueil</text></g></g></g></g></g></g><g transform="translate(56, -256)"><g transform="translate(22, 22)"><path d="M8.5 5 L90 5 L171.5 5 C173.5 5 175 6.5 175 8.5 L175 42 L175 73 C175 75 173 76 171 75 C171 75 161 65 133 65 C104 65 76 79 48 79 C19 79 5 65 5 65 L5 42 L5 8.5 C5 6.5 6.5 5 8.5 5 Z" fill="#FFFFFF" stroke="#0080FF" stroke-width="2"/><g transform="translate(10, 12.5)"><g transform="translate(0, 9)"><g transform="translate(0, 0)"><g transform="translate(4, 0) scale(0.9)"><text x="48.5" y="18.5" fill="#101723" font-size="14" font-family="Roboto,sans-serif" font-weight="400" xml:space="preserve">FAQ vente</text></g></g></g></g></g></g><g transform="translate(280, -256)"><g transform="translate(22, 22)"><path d="M8.5 5 L90 5 L171.5 5 C173.5 5 175 6.5 175 8.5 L175 42 L175 73 C175 75 173 76 171 75 C171 75 161 65 133 65 C104 65 76 79 48 79 C19 79 5 65 5 65 L5 42 L5 8.5 C5 6.5 6.5 5 8.5 5 Z" fill="#FFFFFF" stroke="#0080FF" stroke-width="2"/><g transform="translate(10, 12.5)"><g transform="translate(0, 9)"><g transform="translate(0, 0)"><g transform="translate(4, 0) scale(0.9)"><text x="52" y="18.5" fill="#101723" font-size="14" font-family="Roboto,sans-serif" font-weight="400" xml:space="preserve">À propos</text></g></g></g></g></g></g><g transform="translate(504, -256)"><g transform="translate(22, 22)"><path d="M8.5 5 L90 5 L171.5 5 C173.5 5 175 6.5 175 8.5 L175 42 L175 73 C175 75 173 76 171 75 C171 75 161 65 133 65 C104 65 76 79 48 79 C19 79 5 65 5 65 L5 42 L5 8.5 C5 6.5 6.5 5 8.5 5 Z" fill="#FFFFFF" stroke="#0080FF" stroke-width="2"/><g transform="translate(10, 12.5)"><g transform="translate(0, 9)"><g transform="translate(0, 0)"><g transform="translate(4, 0) scale(0.9)"><text x="48" y="18.5" fill="#101723" font-size="14" font-family="Roboto,sans-serif" font-weight="400" xml:space="preserve">FAQ achat</text></g></g></g></g></g></g><g transform="translate(-168, -128)"><g transform="translate(22, 22)"><path d="M11.5 8 L90 8 L168.5 8 C170.5 8 172 9.5 172 11.5 L172 42 L172 72.5 C172 74.5 170.5 76 168.5 76 L90 76 L11.5 76 C9.5 76 8 74.5 8 72.5 L8 42 L8 11.5 C8 9.5 9.5 8 11.5 8 Z" fill="#FFFFFF" stroke="#0080FF" stroke-width="2"/><g transform="translate(16, 12)"><g transform="translate(0, -3)"><g transform="translate(0, 0)"><g transform="translate(4, 0) scale(0.9)"><text x="2.5" y="18.5" fill="#101723" font-size="14" font-family="Roboto,sans-serif" font-weight="400" xml:space="preserve">Résultats recherche (à </text></g><g transform="translate(4, 14.736842105263158) scale(0.9)"><text x="8" y="18.5" fill="#101723" font-size="14" font-family="Roboto,sans-serif" font-weight="400" xml:space="preserve">partir éditorialisation </text></g><g transform="translate(4, 29.473684210526315) scale(0.9)"><text x="49.5" y="18.5" fill="#101723" font-size="14" font-family="Roboto,sans-serif" font-weight="400" xml:space="preserve">accueil)</text></g></g></g></g></g></g><g transform="translate(56, -128)"><g transform="translate(22, 22)"><path d="M8.5 5 L90 5 L171.5 5 C173.5 5 175 6.5 175 8.5 L175 42 L175 73 C175 75 173 76 171 75 C171 75 161 65 133 65 C104 65 76 79 48 79 C19 79 5 65 5 65 L5 42 L5 8.5 C5 6.5 6.5 5 8.5 5 Z" fill="#FFFFFF" stroke="#0080FF" stroke-width="2"/><g transform="translate(10, 12.5)"><g transform="translate(0, 9)"><g transform="translate(0, 0)"><g transform="translate(4, 0) scale(0.9)"><text x="22" y="18.5" fill="#101723" font-size="14" font-family="Roboto,sans-serif" font-weight="400" xml:space="preserve">Créer mon compte</text></g></g></g></g></g></g><g transform="translate(280, -128)"><g transform="translate(22, 22)"><path d="M11.5 8 L90 8 L168.5 8 C170.5 8 172 9.5 172 11.5 L172 42 L172 72.5 C172 74.5 170.5 76 168.5 76 L90 76 L11.5 76 C9.5 76 8 74.5 8 72.5 L8 42 L8 11.5 C8 9.5 9.5 8 11.5 8 Z" fill="#FFFFFF" stroke="#0080FF" stroke-width="2"/><g transform="translate(16, 12)"><g transform="translate(0, 8)"><g transform="translate(0, 0)"><g transform="translate(4, 0) scale(0.9)"><text x="12" y="18.5" fill="#101723" font-size="14" font-family="Roboto,sans-serif" font-weight="400" xml:space="preserve">Formulaire création </text></g><g transform="translate(4, 14.736842105263158) scale(0.9)"><text x="50.5" y="18.5" fill="#101723" font-size="14" font-family="Roboto,sans-serif" font-weight="400" xml:space="preserve">compte</text></g></g></g></g></g></g><g transform="translate(280, 0)"><g transform="translate(22, 22)"><path d="M47.5 23.5 L88 7 A4.945945945945946 4.945945945945946 0 0 1 92 7 L132.5 23.5 L173 40 A2.152941176470588 2.152941176470588 0 0 1 173 44 L132.5 60.5 L92 77 A4.945945945945946 4.945945945945946 0 0 1 88 77 L47.5 60.5 L7 44 A2.152941176470588 2.152941176470588 0 0 1 7 40 Z" fill="#FFFFFF" stroke="#0080FF" stroke-width="2"/><g transform="translate(43.5, 22)"><g transform="translate(0, -2)"><g transform="translate(0, 0)"><g transform="translate(4, 0) scale(0.9)"><text x="9" y="18.5" fill="#101723" font-size="14" font-family="Roboto,sans-serif" font-weight="400" xml:space="preserve">Création du </text></g><g transform="translate(4, 14.736842105263158) scale(0.9)"><text x="17.5" y="18.5" fill="#101723" font-size="14" font-family="Roboto,sans-serif" font-weight="400" xml:space="preserve">compte ?</text></g></g></g></g></g></g><g transform="translate(280, 128)"><g transform="translate(22, 22)"><path d="M8.5 5 L90 5 L171.5 5 C173.5 5 175 6.5 175 8.5 L175 42 L175 73 C175 75 173 76 171 75 C171 75 161 65 133 65 C104 65 76 79 48 79 C19 79 5 65 5 65 L5 42 L5 8.5 C5 6.5 6.5 5 8.5 5 Z" fill="#FFFFFF" stroke="#0080FF" stroke-width="2"/><g transform="translate(10, 12.5)"><g transform="translate(0, 9)"><g transform="translate(0, 0)"><g transform="translate(4, 0) scale(0.9)"><text x="40.5" y="18.5" fill="#101723" font-size="14" font-family="Roboto,sans-serif" font-weight="400" xml:space="preserve">Mon compte</text></g></g></g></g></g></g><g transform="translate(504, 128)"><g transform="translate(22, 22)"><path d="M44 8 L90 8 L136 8 C158 8 172 22 172 44 L172 42 L172 40 C172 62 158 76 136 76 L90 76 L44 76 C22 76 8 62 8 40 L8 42 L8 44 C8 22 22 8 44 8 Z" fill="#FFFFFF" stroke="#0080FF" stroke-width="2"/><g transform="translate(16, 12)"><g><g transform="translate(0, 0)"><g transform="translate(4, 0) scale(0.9)"><text x="64.5" y="18.5" fill="#101723" font-size="14" font-family="Roboto,sans-serif" font-weight="400" xml:space="preserve">Fin</text></g></g></g></g></g></g><g><path stroke="#0080FF" stroke-width="2" fill="none" d="M -198,-192 L -168,-192 L -141,-192" stroke-dasharray=""/><path class="common--cursorPointer" stroke="#FFFFFF" stroke-width="14" opacity="0" fill="none" d="M -198,-192 L -168,-192 L -141,-192"/><g transform="translate(-10000 -10000)"/><g transform="translate(-198 -192)" style="cursor: grab;"><g transform="translate(3 -3) rotate(450)"><circle r="11" cx="3" cy="3" fill="#FFFFFF" stroke="#A2CEF9" stroke-width="2" style="opacity: 0;"/><path d="M3 6C4.65685 6 6 4.65685 6 3C6 1.34315 4.65685 0 3 0C1.34315 0 0 1.34315 0 3C0 4.65685 1.34315 6 3 6Z" fill="#0080FF" style="opacity: 1;"/></g></g><g transform="translate(-141 -192)" style="cursor: grab;"><g transform="translate(-1 -7) rotate(90)"><circle r="11" cx="7" cy="4" fill="#FFFFFF" stroke="#A2CEF9" stroke-width="2" style="opacity: 0;"/><path d="M6.34003 0.275664C6.70452 -0.0918881 7.29548 -0.0918881 7.65997 0.275664L13.7266 6.39331C14.0911 6.76086 14.0911 7.35678 13.7266 7.72434C13.3621 8.09189 12.7712 8.09189 12.4067 7.72434L7 2.2722L1.5933 7.72434C1.22881 8.09189 0.637856 8.09189 0.273367 7.72434C-0.0911224 7.35678 -0.0911224 6.76086 0.273367 6.39331L6.34003 0.275664Z" fill="#0080FF" style="opacity: 1;"/></g></g></g><g><path stroke="#0080FF" stroke-width="2" fill="none" d="M 29,-192 L 56,-192 L 83,-192" stroke-dasharray=""/><path class="common--cursorPointer" stroke="#FFFFFF" stroke-width="14" opacity="0" fill="none" d="M 29,-192 L 56,-192 L 83,-192"/><g transform="translate(-10000 -10000)"/><g transform="translate(29 -192)" style="cursor: grab;"><g transform="translate(3 -3) rotate(450)"><circle r="11" cx="3" cy="3" fill="#FFFFFF" stroke="#A2CEF9" stroke-width="2" style="opacity: 0;"/><path d="M3 6C4.65685 6 6 4.65685 6 3C6 1.34315 4.65685 0 3 0C1.34315 0 0 1.34315 0 3C0 4.65685 1.34315 6 3 6Z" fill="#0080FF" style="opacity: 1;"/></g></g><g transform="translate(83 -192)" style="cursor: grab;"><g transform="translate(-1 -7) rotate(90)"><circle r="11" cx="7" cy="4" fill="#FFFFFF" stroke="#A2CEF9" stroke-width="2" style="opacity: 0;"/><path d="M6.34003 0.275664C6.70452 -0.0918881 7.29548 -0.0918881 7.65997 0.275664L13.7266 6.39331C14.0911 6.76086 14.0911 7.35678 13.7266 7.72434C13.3621 8.09189 12.7712 8.09189 12.4067 7.72434L7 2.2722L1.5933 7.72434C1.22881 8.09189 0.637856 8.09189 0.273367 7.72434C-0.0911224 7.35678 -0.0911224 6.76086 0.273367 6.39331L6.34003 0.275664Z" fill="#0080FF" style="opacity: 1;"/></g></g></g><g><path stroke="#0080FF" stroke-width="2" fill="none" d="M 253,-192 L 280,-192 L 307,-192" stroke-dasharray=""/><path class="common--cursorPointer" stroke="#FFFFFF" stroke-width="14" opacity="0" fill="none" d="M 253,-192 L 280,-192 L 307,-192"/><g transform="translate(-10000 -10000)"/><g transform="translate(253 -192)" style="cursor: grab;"><g transform="translate(3 -3) rotate(450)"><circle r="11" cx="3" cy="3" fill="#FFFFFF" stroke="#A2CEF9" stroke-width="2" style="opacity: 0;"/><path d="M3 6C4.65685 6 6 4.65685 6 3C6 1.34315 4.65685 0 3 0C1.34315 0 0 1.34315 0 3C0 4.65685 1.34315 6 3 6Z" fill="#0080FF" style="opacity: 1;"/></g></g><g transform="translate(307 -192)" style="cursor: grab;"><g transform="translate(-1 -7) rotate(90)"><circle r="11" cx="7" cy="4" fill="#FFFFFF" stroke="#A2CEF9" stroke-width="2" style="opacity: 0;"/><path d="M6.34003 0.275664C6.70452 -0.0918881 7.29548 -0.0918881 7.65997 0.275664L13.7266 6.39331C14.0911 6.76086 14.0911 7.35678 13.7266 7.72434C13.3621 8.09189 12.7712 8.09189 12.4067 7.72434L7 2.2722L1.5933 7.72434C1.22881 8.09189 0.637856 8.09189 0.273367 7.72434C-0.0911224 7.35678 -0.0911224 6.76086 0.273367 6.39331L6.34003 0.275664Z" fill="#0080FF" style="opacity: 1;"/></g></g></g><g><path stroke="#0080FF" stroke-width="2" fill="none" d="M 477,-192 L 504,-192 L 531,-192" stroke-dasharray=""/><path class="common--cursorPointer" stroke="#FFFFFF" stroke-width="14" opacity="0" fill="none" d="M 477,-192 L 504,-192 L 531,-192"/><g transform="translate(-10000 -10000)"/><g transform="translate(477 -192)" style="cursor: grab;"><g transform="translate(3 -3) rotate(450)"><circle r="11" cx="3" cy="3" fill="#FFFFFF" stroke="#A2CEF9" stroke-width="2" style="opacity: 0;"/><path d="M3 6C4.65685 6 6 4.65685 6 3C6 1.34315 4.65685 0 3 0C1.34315 0 0 1.34315 0 3C0 4.65685 1.34315 6 3 6Z" fill="#0080FF" style="opacity: 1;"/></g></g><g transform="translate(531 -192)" style="cursor: grab;"><g transform="translate(-1 -7) rotate(90)"><circle r="11" cx="7" cy="4" fill="#FFFFFF" stroke="#A2CEF9" stroke-width="2" style="opacity: 0;"/><path d="M6.34003 0.275664C6.70452 -0.0918881 7.29548 -0.0918881 7.65997 0.275664L13.7266 6.39331C14.0911 6.76086 14.0911 7.35678 13.7266 7.72434C13.3621 8.09189 12.7712 8.09189 12.4067 7.72434L7 2.2722L1.5933 7.72434C1.22881 8.09189 0.637856 8.09189 0.273367 7.72434C-0.0911224 7.35678 -0.0911224 6.76086 0.273367 6.39331L6.34003 0.275664Z" fill="#0080FF" style="opacity: 1;"/></g></g></g><g><path stroke="#0080FF" stroke-width="2" fill="none" d="M 616,-229 L 616,-246 Q 616,-256 606,-256 L -46,-256 Q -56,-256 -56,-246 L -56,-229" stroke-dasharray=""/><path class="common--cursorPointer" stroke="#FFFFFF" stroke-width="14" opacity="0" fill="none" d="M 616,-229 L 616,-246 Q 616,-256 606,-256 L -46,-256 Q -56,-256 -56,-246 L -56,-229"/><g transform="translate(-10000 -10000)"/><g transform="translate(616 -229)" style="cursor: grab;"><g transform="translate(-3 -3) rotate(360)"><circle r="11" cx="3" cy="3" fill="#FFFFFF" stroke="#A2CEF9" stroke-width="2" style="opacity: 0;"/><path d="M3 6C4.65685 6 6 4.65685 6 3C6 1.34315 4.65685 0 3 0C1.34315 0 0 1.34315 0 3C0 4.65685 1.34315 6 3 6Z" fill="#0080FF" style="opacity: 1;"/></g></g><g transform="translate(-56 -229)" style="cursor: grab;"><g transform="translate(7 -1) rotate(180)"><circle r="11" cx="7" cy="4" fill="#FFFFFF" stroke="#A2CEF9" stroke-width="2" style="opacity: 0;"/><path d="M6.34003 0.275664C6.70452 -0.0918881 7.29548 -0.0918881 7.65997 0.275664L13.7266 6.39331C14.0911 6.76086 14.0911 7.35678 13.7266 7.72434C13.3621 8.09189 12.7712 8.09189 12.4067 7.72434L7 2.2722L1.5933 7.72434C1.22881 8.09189 0.637856 8.09189 0.273367 7.72434C-0.0911224 7.35678 -0.0911224 6.76086 0.273367 6.39331L6.34003 0.275664Z" fill="#0080FF" style="opacity: 1;"/></g></g></g><g><path stroke="#0080FF" stroke-width="2" fill="none" d="M -56,-162 L -56,-128 L -56,-98" stroke-dasharray=""/><path class="common--cursorPointer" stroke="#FFFFFF" stroke-width="14" opacity="0" fill="none" d="M -56,-162 L -56,-128 L -56,-98"/><g transform="translate(-10000 -10000)"/><g transform="translate(-56 -162)" style="cursor: grab;"><g transform="translate(3 3) rotate(180)"><circle r="11" cx="3" cy="3" fill="#FFFFFF" stroke="#A2CEF9" stroke-width="2" style="opacity: 0;"/><path d="M3 6C4.65685 6 6 4.65685 6 3C6 1.34315 4.65685 0 3 0C1.34315 0 0 1.34315 0 3C0 4.65685 1.34315 6 3 6Z" fill="#0080FF" style="opacity: 1;"/></g></g><g transform="translate(-56 -98)" style="cursor: grab;"><g transform="translate(7 -1) rotate(180)"><circle r="11" cx="7" cy="4" fill="#FFFFFF" stroke="#A2CEF9" stroke-width="2" style="opacity: 0;"/><path d="M6.34003 0.275664C6.70452 -0.0918881 7.29548 -0.0918881 7.65997 0.275664L13.7266 6.39331C14.0911 6.76086 14.0911 7.35678 13.7266 7.72434C13.3621 8.09189 12.7712 8.09189 12.4067 7.72434L7 2.2722L1.5933 7.72434C1.22881 8.09189 0.637856 8.09189 0.273367 7.72434C-0.0911224 7.35678 -0.0911224 6.76086 0.273367 6.39331L6.34003 0.275664Z" fill="#0080FF" style="opacity: 1;"/></g></g></g><g><path stroke="#0080FF" stroke-width="2" fill="none" d="M 26,-64 L 56,-64 L 83,-64" stroke-dasharray=""/><path class="common--cursorPointer" stroke="#FFFFFF" stroke-width="14" opacity="0" fill="none" d="M 26,-64 L 56,-64 L 83,-64"/><g transform="translate(-10000 -10000)"/><g transform="translate(26 -64)" style="cursor: grab;"><g transform="translate(3 -3) rotate(450)"><circle r="11" cx="3" cy="3" fill="#FFFFFF" stroke="#A2CEF9" stroke-width="2" style="opacity: 0;"/><path d="M3 6C4.65685 6 6 4.65685 6 3C6 1.34315 4.65685 0 3 0C1.34315 0 0 1.34315 0 3C0 4.65685 1.34315 6 3 6Z" fill="#0080FF" style="opacity: 1;"/></g></g><g transform="translate(83 -64)" style="cursor: grab;"><g transform="translate(-1 -7) rotate(90)"><circle r="11" cx="7" cy="4" fill="#FFFFFF" stroke="#A2CEF9" stroke-width="2" style="opacity: 0;"/><path d="M6.34003 0.275664C6.70452 -0.0918881 7.29548 -0.0918881 7.65997 0.275664L13.7266 6.39331C14.0911 6.76086 14.0911 7.35678 13.7266 7.72434C13.3621 8.09189 12.7712 8.09189 12.4067 7.72434L7 2.2722L1.5933 7.72434C1.22881 8.09189 0.637856 8.09189 0.273367 7.72434C-0.0911224 7.35678 -0.0911224 6.76086 0.273367 6.39331L6.34003 0.275664Z" fill="#0080FF" style="opacity: 1;"/></g></g></g><g><path stroke="#0080FF" stroke-width="2" fill="none" d="M 253,-64 L 280,-64 L 310,-64" stroke-dasharray=""/><path class="common--cursorPointer" stroke="#FFFFFF" stroke-width="14" opacity="0" fill="none" d="M 253,-64 L 280,-64 L 310,-64"/><g transform="translate(-10000 -10000)"/><g transform="translate(253 -64)" style="cursor: grab;"><g transform="translate(3 -3) rotate(450)"><circle r="11" cx="3" cy="3" fill="#FFFFFF" stroke="#A2CEF9" stroke-width="2" style="opacity: 0;"/><path d="M3 6C4.65685 6 6 4.65685 6 3C6 1.34315 4.65685 0 3 0C1.34315 0 0 1.34315 0 3C0 4.65685 1.34315 6 3 6Z" fill="#0080FF" style="opacity: 1;"/></g></g><g transform="translate(310 -64)" style="cursor: grab;"><g transform="translate(-1 -7) rotate(90)"><circle r="11" cx="7" cy="4" fill="#FFFFFF" stroke="#A2CEF9" stroke-width="2" style="opacity: 0;"/><path d="M6.34003 0.275664C6.70452 -0.0918881 7.29548 -0.0918881 7.65997 0.275664L13.7266 6.39331C14.0911 6.76086 14.0911 7.35678 13.7266 7.72434C13.3621 8.09189 12.7712 8.09189 12.4067 7.72434L7 2.2722L1.5933 7.72434C1.22881 8.09189 0.637856 8.09189 0.273367 7.72434C-0.0911224 7.35678 -0.0911224 6.76086 0.273367 6.39331L6.34003 0.275664Z" fill="#0080FF" style="opacity: 1;"/></g></g></g><g><path stroke="#0080FF" stroke-width="2" fill="none" d="M 392,-30 L 392,0 L 392,28.5" stroke-dasharray=""/><path class="common--cursorPointer" stroke="#FFFFFF" stroke-width="14" opacity="0" fill="none" d="M 392,-30 L 392,0 L 392,28.5"/><g transform="translate(-10000 -10000)"/><g transform="translate(392 -30)" style="cursor: grab;"><g transform="translate(3 3) rotate(180)"><circle r="11" cx="3" cy="3" fill="#FFFFFF" stroke="#A2CEF9" stroke-width="2" style="opacity: 0;"/><path d="M3 6C4.65685 6 6 4.65685 6 3C6 1.34315 4.65685 0 3 0C1.34315 0 0 1.34315 0 3C0 4.65685 1.34315 6 3 6Z" fill="#0080FF" style="opacity: 1;"/></g></g><g transform="translate(392 28.5)" style="cursor: grab;"><g transform="translate(7 -1) rotate(180)"><circle r="11" cx="7" cy="4" fill="#FFFFFF" stroke="#A2CEF9" stroke-width="2" style="opacity: 0;"/><path d="M6.34003 0.275664C6.70452 -0.0918881 7.29548 -0.0918881 7.65997 0.275664L13.7266 6.39331C14.0911 6.76086 14.0911 7.35678 13.7266 7.72434C13.3621 8.09189 12.7712 8.09189 12.4067 7.72434L7 2.2722L1.5933 7.72434C1.22881 8.09189 0.637856 8.09189 0.273367 7.72434C-0.0911224 7.35678 -0.0911224 6.76086 0.273367 6.39331L6.34003 0.275664Z" fill="#0080FF" style="opacity: 1;"/></g></g></g><g><path stroke="#0080FF" stroke-width="2" fill="none" d="M 392,99.5 L 392,128 L 392,155" stroke-dasharray=""/><path class="common--cursorPointer" stroke="#FFFFFF" stroke-width="14" opacity="0" fill="none" d="M 392,99.5 L 392,128 L 392,155"/><g transform="translate(-10000 -10000)"/><g transform="translate(392 99.5)" style="cursor: grab;"><g transform="translate(3 3) rotate(180)"><circle r="11" cx="3" cy="3" fill="#FFFFFF" stroke="#A2CEF9" stroke-width="2" style="opacity: 0;"/><path d="M3 6C4.65685 6 6 4.65685 6 3C6 1.34315 4.65685 0 3 0C1.34315 0 0 1.34315 0 3C0 4.65685 1.34315 6 3 6Z" fill="#0080FF" style="opacity: 1;"/></g></g><g transform="translate(392 155)" style="cursor: grab;"><g transform="translate(7 -1) rotate(180)"><circle r="11" cx="7" cy="4" fill="#FFFFFF" stroke="#A2CEF9" stroke-width="2" style="opacity: 0;"/><path d="M6.34003 0.275664C6.70452 -0.0918881 7.29548 -0.0918881 7.65997 0.275664L13.7266 6.39331C14.0911 6.76086 14.0911 7.35678 13.7266 7.72434C13.3621 8.09189 12.7712 8.09189 12.4067 7.72434L7 2.2722L1.5933 7.72434C1.22881 8.09189 0.637856 8.09189 0.273367 7.72434C-0.0911224 7.35678 -0.0911224 6.76086 0.273367 6.39331L6.34003 0.275664Z" fill="#0080FF" style="opacity: 1;"/></g></g></g><g><path stroke="#0080FF" stroke-width="2" fill="none" d="M 477,192 L 504,192 L 534,192" stroke-dasharray=""/><path class="common--cursorPointer" stroke="#FFFFFF" stroke-width="14" opacity="0" fill="none" d="M 477,192 L 504,192 L 534,192"/><g transform="translate(-10000 -10000)"/><g transform="translate(477 192)" style="cursor: grab;"><g transform="translate(3 -3) rotate(450)"><circle r="11" cx="3" cy="3" fill="#FFFFFF" stroke="#A2CEF9" stroke-width="2" style="opacity: 0;"/><path d="M3 6C4.65685 6 6 4.65685 6 3C6 1.34315 4.65685 0 3 0C1.34315 0 0 1.34315 0 3C0 4.65685 1.34315 6 3 6Z" fill="#0080FF" style="opacity: 1;"/></g></g><g transform="translate(534 192)" style="cursor: grab;"><g transform="translate(-1 -7) rotate(90)"><circle r="11" cx="7" cy="4" fill="#FFFFFF" stroke="#A2CEF9" stroke-width="2" style="opacity: 0;"/><path d="M6.34003 0.275664C6.70452 -0.0918881 7.29548 -0.0918881 7.65997 0.275664L13.7266 6.39331C14.0911 6.76086 14.0911 7.35678 13.7266 7.72434C13.3621 8.09189 12.7712 8.09189 12.4067 7.72434L7 2.2722L1.5933 7.72434C1.22881 8.09189 0.637856 8.09189 0.273367 7.72434C-0.0911224 7.35678 -0.0911224 6.76086 0.273367 6.39331L6.34003 0.275664Z" fill="#0080FF" style="opacity: 1;"/></g></g></g></g></g></svg>