<svg xmlns="http://www.w3.org/2000/svg" viewBox="0 0 1052 511" width="1052" height="511" style="max-width: 100%; max-height: 100%;"><rect x="0" y="0" width="1052" height="511" fill="#FFFFFF"/><g transform="translate(50, 45)"><g transform="translate(448, 384)"><g transform="translate(-448, -384)"><g transform="translate(22, 22)"><path d="M44 8 L90 8 L136 8 C158 8 172 22 172 44 L172 42 L172 40 C172 62 158 76 136 76 L90 76 L44 76 C22 76 8 62 8 40 L8 42 L8 44 C8 22 22 8 44 8 Z" fill="#FFFFFF" stroke="#0080FF" stroke-width="2"/><g transform="translate(16, 12)"><g transform="translate(0, 19)"><g transform="translate(0, 0)"><g transform="translate(4, 0) scale(0.9)"><text x="55.5" y="18.5" fill="#101723" font-size="14" font-family="Roboto,sans-serif" font-weight="400" xml:space="preserve">Début</text></g></g></g></g></g></g><g transform="translate(56, -256)"><g transform="translate(22, 22)"><path d="M11.5 8 L90 8 L168.5 8 C170.5 8 172 9.5 172 11.5 L172 42 L172 72.5 C172 74.5 170.5 76 168.5 76 L90 76 L11.5 76 C9.5 76 8 74.5 8 72.5 L8 42 L8 11.5 C8 9.5 9.5 8 11.5 8 Z" fill="#FFFFFF" stroke="#0080FF" stroke-width="2"/><g transform="translate(16, 12)"><g transform="translate(0, 19)"><g transform="translate(0, 0)"><g transform="translate(4, 0) scale(0.9)"><text x="12.5" y="18.5" fill="#101723" font-size="14" font-family="Roboto,sans-serif" font-weight="400" xml:space="preserve">Résultats recherche</text></g></g></g></g></g></g><g transform="translate(280, -256)"><g transform="translate(22, 22)"><path d="M47.5 23.5 L88 7 A4.945945945945946 4.945945945945946 0 0 1 92 7 L132.5 23.5 L173 40 A2.152941176470588 2.152941176470588 0 0 1 173 44 L132.5 60.5 L92 77 A4.945945945945946 4.945945945945946 0 0 1 88 77 L47.5 60.5 L7 44 A2.152941176470588 2.152941176470588 0 0 1 7 40 Z" fill="#FFFFFF" stroke="#0080FF" stroke-width="2"/><g transform="translate(43.5, 22)"><g transform="translate(0, 9)"><g transform="translate(0, 0)"><g transform="translate(4, 0) scale(0.9)"><text x="6.5" y="18.5" fill="#101723" font-size="14" font-family="Roboto,sans-serif" font-weight="400" xml:space="preserve">Intéressant ?</text></g></g></g></g></g></g><g transform="translate(-448, -96)"><g transform="translate(22, 22)"><path d="M44 8 L90 8 L136 8 C158 8 172 22 172 44 L172 42 L172 40 C172 62 158 76 136 76 L90 76 L44 76 C22 76 8 62 8 40 L8 42 L8 44 C8 22 22 8 44 8 Z" fill="#FFFFFF" stroke="#0080FF" stroke-width="2"/><g transform="translate(16, 12)"><g transform="translate(0, 19)"><g transform="translate(0, 0)"><g transform="translate(4, 0) scale(0.9)"><text x="64.5" y="18.5" fill="#101723" font-size="14" font-family="Roboto,sans-serif" font-weight="400" xml:space="preserve">Fin</text></g></g></g></g></g></g><g transform="translate(56, -96)"><g transform="translate(22, 22)"><path d="M63.83704909609774 15.83704909609774 A37 37 0 0 1 90 5 A37 37 0 0 1 116.16295090390226 15.83704909609774 A37 37 0 0 1 127 42 A37 37 0 0 1 116.16295090390226 68.16295090390226 A37 37 0 0 1 90 79 A37 37 0 0 1 63.83704909609774 68.16295090390226 A37 37 0 0 1 53 42 A37 37 0 0 1 63.83704909609774 15.83704909609774 Z" fill="#FFFFFF" stroke="#0080FF" stroke-width="2"/><g transform="translate(62, 23)"><g transform="translate(0, 9)"><g transform="translate(0, 0)"><g transform="translate(4, 0) scale(0.9)"><text x="10.5" y="18.5" fill="#101723" font-size="14" font-family="Roboto,sans-serif" font-weight="400" xml:space="preserve">Miser</text></g></g></g></g></g></g><g transform="translate(-168, -384)"><g transform="translate(22, 22)"><path d="M8.5 5 L90 5 L171.5 5 C173.5 5 175 6.5 175 8.5 L175 42 L175 73 C175 75 173 76 171 75 C171 75 161 65 133 65 C104 65 76 79 48 79 C19 79 5 65 5 65 L5 42 L5 8.5 C5 6.5 6.5 5 8.5 5 Z" fill="#FFFFFF" stroke="#0080FF" stroke-width="2"/><g transform="translate(10, 12.5)"><g transform="translate(0, 9)"><g transform="translate(0, 0)"><g transform="translate(4, 0) scale(0.9)"><text x="47" y="18.5" fill="#101723" font-size="14" font-family="Roboto,sans-serif" font-weight="400" xml:space="preserve">Connexion</text></g></g></g></g></g></g><g transform="translate(280, -96)"><g transform="translate(22, 22)"><path d="M8.5 5 L90 5 L171.5 5 C173.5 5 175 6.5 175 8.5 L175 42 L175 73 C175 75 173 76 171 75 C171 75 161 65 133 65 C104 65 76 79 48 79 C19 79 5 65 5 65 L5 42 L5 8.5 C5 6.5 6.5 5 8.5 5 Z" fill="#FFFFFF" stroke="#0080FF" stroke-width="2"/><g transform="translate(10, 12.5)"><g transform="translate(0, 9)"><g transform="translate(0, 0)"><g transform="translate(4, 0) scale(0.9)"><text x="37" y="18.5" fill="#101723" font-size="14" font-family="Roboto,sans-serif" font-weight="400" xml:space="preserve">Détail timbres</text></g></g></g></g></g></g><g transform="translate(-168, -96)"><g transform="translate(22, 22)"><path d="M8.5 5 L90 5 L171.5 5 C173.5 5 175 6.5 175 8.5 L175 42 L175 73 C175 75 173 76 171 75 C171 75 161 65 133 65 C104 65 76 79 48 79 C19 79 5 65 5 65 L5 42 L5 8.5 C5 6.5 6.5 5 8.5 5 Z" fill="#FFFFFF" stroke="#0080FF" stroke-width="2"/><g transform="translate(10, 12.5)"><g transform="translate(0, 9)"><g transform="translate(0, 0)"><g transform="translate(4, 0) scale(0.9)"><text x="8" y="18.5" fill="#101723" font-size="14" font-family="Roboto,sans-serif" font-weight="400" xml:space="preserve">Mes enchères en cours</text></g></g></g></g></g></g><g transform="translate(-168, -256)"><g transform="translate(22, 22)"><path d="M63.83704909609774 15.83704909609774 A37 37 0 0 1 90 5 A37 37 0 0 1 116.16295090390226 15.83704909609774 A37 37 0 0 1 127 42 A37 37 0 0 1 116.16295090390226 68.16295090390226 A37 37 0 0 1 90 79 A37 37 0 0 1 63.83704909609774 68.16295090390226 A37 37 0 0 1 53 42 A37 37 0 0 1 63.83704909609774 15.83704909609774 Z" fill="#FFFFFF" stroke="#0080FF" stroke-width="2"/><g transform="translate(62, 23)"><g><g transform="translate(0, 0)"><g transform="translate(4, 0) scale(0.9)"><text x="3" y="18.5" fill="#101723" font-size="14" font-family="Roboto,sans-serif" font-weight="400" xml:space="preserve">Recherc</text></g><g transform="translate(4, 14.736842105263158) scale(0.9)"><text x="18" y="18.5" fill="#101723" font-size="14" font-family="Roboto,sans-serif" font-weight="400" xml:space="preserve">her</text></g></g></g></g></g></g><g><path stroke="#0080FF" stroke-width="2" fill="none" d="M -254,-320 L -224,-320 L -168,-320 L -141,-320" stroke-dasharray=""/><path class="common--cursorPointer" stroke="#FFFFFF" stroke-width="14" opacity="0" fill="none" d="M -254,-320 L -224,-320 L -168,-320 L -141,-320"/><g transform="translate(-10000 -10000)"/><g transform="translate(-254 -320)" style="cursor: grab;"><g transform="translate(3 -3) rotate(450)"><circle r="11" cx="3" cy="3" fill="#FFFFFF" stroke="#A2CEF9" stroke-width="2" style="opacity: 0;"/><path d="M3 6C4.65685 6 6 4.65685 6 3C6 1.34315 4.65685 0 3 0C1.34315 0 0 1.34315 0 3C0 4.65685 1.34315 6 3 6Z" fill="#0080FF" style="opacity: 1;"/></g></g><g transform="translate(-141 -320)" style="cursor: grab;"><g transform="translate(-1 -7) rotate(90)"><circle r="11" cx="7" cy="4" fill="#FFFFFF" stroke="#A2CEF9" stroke-width="2" style="opacity: 0;"/><path d="M6.34003 0.275664C6.70452 -0.0918881 7.29548 -0.0918881 7.65997 0.275664L13.7266 6.39331C14.0911 6.76086 14.0911 7.35678 13.7266 7.72434C13.3621 8.09189 12.7712 8.09189 12.4067 7.72434L7 2.2722L1.5933 7.72434C1.22881 8.09189 0.637856 8.09189 0.273367 7.72434C-0.0911224 7.35678 -0.0911224 6.76086 0.273367 6.39331L6.34003 0.275664Z" fill="#0080FF" style="opacity: 1;"/></g></g></g><g><path stroke="#0080FF" stroke-width="2" fill="none" d="M 250,-192 L 280,-192 L 308,-192" stroke-dasharray=""/><path class="common--cursorPointer" stroke="#FFFFFF" stroke-width="14" opacity="0" fill="none" d="M 250,-192 L 280,-192 L 308,-192"/><g transform="translate(-10000 -10000)"/><g transform="translate(250 -192)" style="cursor: grab;"><g transform="translate(3 -3) rotate(450)"><circle r="11" cx="3" cy="3" fill="#FFFFFF" stroke="#A2CEF9" stroke-width="2" style="opacity: 0;"/><path d="M3 6C4.65685 6 6 4.65685 6 3C6 1.34315 4.65685 0 3 0C1.34315 0 0 1.34315 0 3C0 4.65685 1.34315 6 3 6Z" fill="#0080FF" style="opacity: 1;"/></g></g><g transform="translate(308 -192)" style="cursor: grab;"><g transform="translate(-1 -7) rotate(90)"><circle r="11" cx="7" cy="4" fill="#FFFFFF" stroke="#A2CEF9" stroke-width="2" style="opacity: 0;"/><path d="M6.34003 0.275664C6.70452 -0.0918881 7.29548 -0.0918881 7.65997 0.275664L13.7266 6.39331C14.0911 6.76086 14.0911 7.35678 13.7266 7.72434C13.3621 8.09189 12.7712 8.09189 12.4067 7.72434L7 2.2722L1.5933 7.72434C1.22881 8.09189 0.637856 8.09189 0.273367 7.72434C-0.0911224 7.35678 -0.0911224 6.76086 0.273367 6.39331L6.34003 0.275664Z" fill="#0080FF" style="opacity: 1;"/></g></g></g><g><path stroke="#0080FF" stroke-width="2" fill="none" d="M 392,-227.5 L 392,-246 Q 392,-256 382,-256 L 178,-256 Q 168,-256 168,-246 L 168,-226" stroke-dasharray=""/><path class="common--cursorPointer" stroke="#FFFFFF" stroke-width="14" opacity="0" fill="none" d="M 392,-227.5 L 392,-246 Q 392,-256 382,-256 L 178,-256 Q 168,-256 168,-246 L 168,-226"/><g transform="translate(-10000 -10000)"/><g transform="translate(392 -227.5)" style="cursor: grab;"><g transform="translate(-3 -3) rotate(360)"><circle r="11" cx="3" cy="3" fill="#FFFFFF" stroke="#A2CEF9" stroke-width="2" style="opacity: 0;"/><path d="M3 6C4.65685 6 6 4.65685 6 3C6 1.34315 4.65685 0 3 0C1.34315 0 0 1.34315 0 3C0 4.65685 1.34315 6 3 6Z" fill="#0080FF" style="opacity: 1;"/></g></g><g transform="translate(168 -226)" style="cursor: grab;"><g transform="translate(7 -1) rotate(180)"><circle r="11" cx="7" cy="4" fill="#FFFFFF" stroke="#A2CEF9" stroke-width="2" style="opacity: 0;"/><path d="M6.34003 0.275664C6.70452 -0.0918881 7.29548 -0.0918881 7.65997 0.275664L13.7266 6.39331C14.0911 6.76086 14.0911 7.35678 13.7266 7.72434C13.3621 8.09189 12.7712 8.09189 12.4067 7.72434L7 2.2722L1.5933 7.72434C1.22881 8.09189 0.637856 8.09189 0.273367 7.72434C-0.0911224 7.35678 -0.0911224 6.76086 0.273367 6.39331L6.34003 0.275664Z" fill="#0080FF" style="opacity: 1;"/></g></g></g><g><path stroke="#0080FF" stroke-width="2" fill="none" d="M 131,-32 L 56,-32 L 29,-32" stroke-dasharray=""/><path class="common--cursorPointer" stroke="#FFFFFF" stroke-width="14" opacity="0" fill="none" d="M 131,-32 L 56,-32 L 29,-32"/><g transform="translate(-10000 -10000)"/><g transform="translate(131 -32)" style="cursor: grab;"><g transform="translate(-3 3) rotate(270)"><circle r="11" cx="3" cy="3" fill="#FFFFFF" stroke="#A2CEF9" stroke-width="2" style="opacity: 0;"/><path d="M3 6C4.65685 6 6 4.65685 6 3C6 1.34315 4.65685 0 3 0C1.34315 0 0 1.34315 0 3C0 4.65685 1.34315 6 3 6Z" fill="#0080FF" style="opacity: 1;"/></g></g><g transform="translate(29 -32)" style="cursor: grab;"><g transform="translate(1 7) rotate(270)"><circle r="11" cx="7" cy="4" fill="#FFFFFF" stroke="#A2CEF9" stroke-width="2" style="opacity: 0;"/><path d="M6.34003 0.275664C6.70452 -0.0918881 7.29548 -0.0918881 7.65997 0.275664L13.7266 6.39331C14.0911 6.76086 14.0911 7.35678 13.7266 7.72434C13.3621 8.09189 12.7712 8.09189 12.4067 7.72434L7 2.2722L1.5933 7.72434C1.22881 8.09189 0.637856 8.09189 0.273367 7.72434C-0.0911224 7.35678 -0.0911224 6.76086 0.273367 6.39331L6.34003 0.275664Z" fill="#0080FF" style="opacity: 1;"/></g></g></g><g><path stroke="#0080FF" stroke-width="2" fill="none" d="M -141,-32 L -168,-32 L -224,-32 L -254,-32" stroke-dasharray=""/><path class="common--cursorPointer" stroke="#FFFFFF" stroke-width="14" opacity="0" fill="none" d="M -141,-32 L -168,-32 L -224,-32 L -254,-32"/><g transform="translate(-10000 -10000)"/><g transform="translate(-141 -32)" style="cursor: grab;"><g transform="translate(-3 3) rotate(270)"><circle r="11" cx="3" cy="3" fill="#FFFFFF" stroke="#A2CEF9" stroke-width="2" style="opacity: 0;"/><path d="M3 6C4.65685 6 6 4.65685 6 3C6 1.34315 4.65685 0 3 0C1.34315 0 0 1.34315 0 3C0 4.65685 1.34315 6 3 6Z" fill="#0080FF" style="opacity: 1;"/></g></g><g transform="translate(-254 -32)" style="cursor: grab;"><g transform="translate(1 7) rotate(270)"><circle r="11" cx="7" cy="4" fill="#FFFFFF" stroke="#A2CEF9" stroke-width="2" style="opacity: 0;"/><path d="M6.34003 0.275664C6.70452 -0.0918881 7.29548 -0.0918881 7.65997 0.275664L13.7266 6.39331C14.0911 6.76086 14.0911 7.35678 13.7266 7.72434C13.3621 8.09189 12.7712 8.09189 12.4067 7.72434L7 2.2722L1.5933 7.72434C1.22881 8.09189 0.637856 8.09189 0.273367 7.72434C-0.0911224 7.35678 -0.0911224 6.76086 0.273367 6.39331L6.34003 0.275664Z" fill="#0080FF" style="opacity: 1;"/></g></g></g><g><path stroke="#0080FF" stroke-width="2" fill="none" d="M -56,-290 L -56,-256 L -56,-229" stroke-dasharray=""/><path class="common--cursorPointer" stroke="#FFFFFF" stroke-width="14" opacity="0" fill="none" d="M -56,-290 L -56,-256 L -56,-229"/><g transform="translate(-10000 -10000)"/><g transform="translate(-56 -290)" style="cursor: grab;"><g transform="translate(3 3) rotate(180)"><circle r="11" cx="3" cy="3" fill="#FFFFFF" stroke="#A2CEF9" stroke-width="2" style="opacity: 0;"/><path d="M3 6C4.65685 6 6 4.65685 6 3C6 1.34315 4.65685 0 3 0C1.34315 0 0 1.34315 0 3C0 4.65685 1.34315 6 3 6Z" fill="#0080FF" style="opacity: 1;"/></g></g><g transform="translate(-56 -229)" style="cursor: grab;"><g transform="translate(7 -1) rotate(180)"><circle r="11" cx="7" cy="4" fill="#FFFFFF" stroke="#A2CEF9" stroke-width="2" style="opacity: 0;"/><path d="M6.34003 0.275664C6.70452 -0.0918881 7.29548 -0.0918881 7.65997 0.275664L13.7266 6.39331C14.0911 6.76086 14.0911 7.35678 13.7266 7.72434C13.3621 8.09189 12.7712 8.09189 12.4067 7.72434L7 2.2722L1.5933 7.72434C1.22881 8.09189 0.637856 8.09189 0.273367 7.72434C-0.0911224 7.35678 -0.0911224 6.76086 0.273367 6.39331L6.34003 0.275664Z" fill="#0080FF" style="opacity: 1;"/></g></g></g><g><path stroke="#0080FF" stroke-width="2" fill="none" d="M -19,-192 L 56,-192 L 86,-192" stroke-dasharray=""/><path class="common--cursorPointer" stroke="#FFFFFF" stroke-width="14" opacity="0" fill="none" d="M -19,-192 L 56,-192 L 86,-192"/><g transform="translate(-10000 -10000)"/><g transform="translate(-19 -192)" style="cursor: grab;"><g transform="translate(3 -3) rotate(450)"><circle r="11" cx="3" cy="3" fill="#FFFFFF" stroke="#A2CEF9" stroke-width="2" style="opacity: 0;"/><path d="M3 6C4.65685 6 6 4.65685 6 3C6 1.34315 4.65685 0 3 0C1.34315 0 0 1.34315 0 3C0 4.65685 1.34315 6 3 6Z" fill="#0080FF" style="opacity: 1;"/></g></g><g transform="translate(86 -192)" style="cursor: grab;"><g transform="translate(-1 -7) rotate(90)"><circle r="11" cx="7" cy="4" fill="#FFFFFF" stroke="#A2CEF9" stroke-width="2" style="opacity: 0;"/><path d="M6.34003 0.275664C6.70452 -0.0918881 7.29548 -0.0918881 7.65997 0.275664L13.7266 6.39331C14.0911 6.76086 14.0911 7.35678 13.7266 7.72434C13.3621 8.09189 12.7712 8.09189 12.4067 7.72434L7 2.2722L1.5933 7.72434C1.22881 8.09189 0.637856 8.09189 0.273367 7.72434C-0.0911224 7.35678 -0.0911224 6.76086 0.273367 6.39331L6.34003 0.275664Z" fill="#0080FF" style="opacity: 1;"/></g></g></g><g><path stroke="#0080FF" stroke-width="2" fill="none" d="M 392,-156.5 L 392,-128 L 392,-96 L 392,-69" stroke-dasharray=""/><path class="common--cursorPointer" stroke="#FFFFFF" stroke-width="14" opacity="0" fill="none" d="M 392,-156.5 L 392,-128 L 392,-96 L 392,-69"/><g transform="translate(-10000 -10000)"/><g transform="translate(392 -156.5)" style="cursor: grab;"><g transform="translate(3 3) rotate(180)"><circle r="11" cx="3" cy="3" fill="#FFFFFF" stroke="#A2CEF9" stroke-width="2" style="opacity: 0;"/><path d="M3 6C4.65685 6 6 4.65685 6 3C6 1.34315 4.65685 0 3 0C1.34315 0 0 1.34315 0 3C0 4.65685 1.34315 6 3 6Z" fill="#0080FF" style="opacity: 1;"/></g></g><g transform="translate(392 -69)" style="cursor: grab;"><g transform="translate(7 -1) rotate(180)"><circle r="11" cx="7" cy="4" fill="#FFFFFF" stroke="#A2CEF9" stroke-width="2" style="opacity: 0;"/><path d="M6.34003 0.275664C6.70452 -0.0918881 7.29548 -0.0918881 7.65997 0.275664L13.7266 6.39331C14.0911 6.76086 14.0911 7.35678 13.7266 7.72434C13.3621 8.09189 12.7712 8.09189 12.4067 7.72434L7 2.2722L1.5933 7.72434C1.22881 8.09189 0.637856 8.09189 0.273367 7.72434C-0.0911224 7.35678 -0.0911224 6.76086 0.273367 6.39331L6.34003 0.275664Z" fill="#0080FF" style="opacity: 1;"/></g></g></g><g><path stroke="#0080FF" stroke-width="2" fill="none" d="M 307,-32 L 280,-32 L 205,-32" stroke-dasharray=""/><path class="common--cursorPointer" stroke="#FFFFFF" stroke-width="14" opacity="0" fill="none" d="M 307,-32 L 280,-32 L 205,-32"/><g transform="translate(-10000 -10000)"/><g transform="translate(307 -32)" style="cursor: grab;"><g transform="translate(-3 3) rotate(270)"><circle r="11" cx="3" cy="3" fill="#FFFFFF" stroke="#A2CEF9" stroke-width="2" style="opacity: 0;"/><path d="M3 6C4.65685 6 6 4.65685 6 3C6 1.34315 4.65685 0 3 0C1.34315 0 0 1.34315 0 3C0 4.65685 1.34315 6 3 6Z" fill="#0080FF" style="opacity: 1;"/></g></g><g transform="translate(205 -32)" style="cursor: grab;"><g transform="translate(1 7) rotate(270)"><circle r="11" cx="7" cy="4" fill="#FFFFFF" stroke="#A2CEF9" stroke-width="2" style="opacity: 0;"/><path d="M6.34003 0.275664C6.70452 -0.0918881 7.29548 -0.0918881 7.65997 0.275664L13.7266 6.39331C14.0911 6.76086 14.0911 7.35678 13.7266 7.72434C13.3621 8.09189 12.7712 8.09189 12.4067 7.72434L7 2.2722L1.5933 7.72434C1.22881 8.09189 0.637856 8.09189 0.273367 7.72434C-0.0911224 7.35678 -0.0911224 6.76086 0.273367 6.39331L6.34003 0.275664Z" fill="#0080FF" style="opacity: 1;"/></g></g></g></g></g></svg>